<svg width="190" height="100" viewBox="0 0 190 100" fill="none" xmlns="http://www.w3.org/2000/svg">
<path d="M95 99.7037C147.467 99.7037 190 77.3843 190 49.8519C190 22.3194 147.467 0 95 0C42.5329 0 0 22.3194 0 49.8519C0 77.3843 42.5329 99.7037 95 99.7037Z" fill="url(#paint0_radial_10_414)"/>
<path d="M95 96C145.418 96 186.289 75.3388 186.289 49.8519C186.289 24.365 145.418 3.70374 95 3.70374C44.5824 3.70374 3.71094 24.365 3.71094 49.8519C3.71094 75.3388 44.5824 96 95 96Z" fill="#6181B6"/>
<path d="M113.48 64.8148L118.008 41.5555C119.047 36.2962 118.156 32.3703 115.484 29.9259C112.887 27.5555 108.434 26.3703 101.902 26.3703H94.0351L96.2617 14.8148C96.3359 14.3703 96.2617 13.9259 95.9648 13.5555C95.6679 13.1851 95.2968 13.037 94.8515 13.037H84.0156C83.2734 13.037 82.6797 13.5555 82.5312 14.2222L77.707 38.8888C77.2617 36.074 76.2226 33.7037 74.4414 31.7777C71.25 28.1481 66.2773 26.2962 59.5234 26.2962H38.6679C37.9258 26.2962 37.332 26.8148 37.1836 27.4814L27.4609 77.5555C27.3867 77.9999 27.4609 78.4444 27.7578 78.8148C28.0547 79.1851 28.4258 79.3333 28.8711 79.3333H39.7812C40.5234 79.3333 41.1172 78.8148 41.2656 78.1481L43.6406 66.074H51.7304C55.9609 66.074 59.5976 65.6296 62.3437 64.7407C65.2383 63.7777 67.8359 62.2222 70.1367 60.074C71.9922 58.3703 73.5508 56.4444 74.7383 54.3703L72.8086 64.3703C72.7343 64.8148 72.8086 65.2592 73.1054 65.6296C73.4023 66 73.7734 66.1481 74.2187 66.1481H85.0547C85.7968 66.1481 86.3906 65.6296 86.539 64.9629L91.8828 37.5555H99.3047C102.496 37.5555 103.387 38.1481 103.684 38.4444C103.906 38.6666 104.352 39.5555 103.832 42.2962L99.5273 64.4444C99.4531 64.8888 99.5273 65.3333 99.8242 65.7037C100.121 66.074 100.492 66.2222 100.937 66.2222H112.07C112.738 66 113.332 65.4814 113.48 64.8148ZM63.3086 45.5555C62.6406 49.037 61.3789 51.5555 59.5234 52.9629C57.6679 54.3703 54.625 55.1111 50.6172 55.1111H45.7929L49.2812 37.1851H55.5156C60.1172 37.1851 61.9726 38.1481 62.7148 38.9629C63.6797 40.1481 63.9023 42.4444 63.3086 45.5555ZM159.793 31.7777C156.602 28.1481 151.629 26.2962 144.875 26.2962H123.871C123.129 26.2962 122.535 26.8148 122.387 27.4814L112.664 77.4814C112.59 77.9259 112.664 78.3703 112.961 78.7407C113.258 79.1111 113.629 79.2592 114.074 79.2592H124.984C125.727 79.2592 126.32 78.7407 126.469 78.074L128.844 66H136.934C141.164 66 144.801 65.5555 147.547 64.6666C150.441 63.7037 153.039 62.1481 155.34 60C157.27 58.2222 158.902 56.2222 160.09 54.074C161.277 51.9259 162.168 49.5555 162.687 46.9629C163.949 40.5185 162.984 35.4814 159.793 31.7777ZM148.437 45.5555C147.77 49.037 146.508 51.5555 144.652 52.9629C142.797 54.3703 139.754 55.1111 135.746 55.1111H130.922L134.41 37.1851H140.645C145.246 37.1851 147.102 38.1481 147.844 38.9629C148.883 40.1481 149.105 42.4444 148.437 45.5555Z" fill="white"/>
<path d="M55.5156 35.7037C59.6719 35.7037 62.418 36.4445 63.8281 38C65.2383 39.5556 65.5352 42.1482 64.793 45.8519C64.0508 49.7037 62.5664 52.5186 60.4141 54.1482C58.2617 55.7778 54.9961 56.5926 50.6172 56.5926H44.0117L48.0938 35.7037H55.5156ZM28.9453 77.7778H39.8555L42.4531 64.5186H51.8047C55.9609 64.5186 59.3008 64.0741 61.9727 63.1852C64.6445 62.2963 67.0195 60.8889 69.2461 58.8149C71.1016 57.1112 72.5859 55.2593 73.6992 53.2593C74.8125 51.2593 75.6289 49.0371 76.0742 46.5926C77.2617 40.6667 76.3711 36.0741 73.4766 32.7408C70.582 29.4074 65.9805 27.7778 59.6719 27.7778H38.668L28.9453 77.7778ZM84.0898 14.5186H94.9258L92.3281 27.7778H101.977C108.062 27.7778 112.219 28.8149 114.52 30.963C116.82 33.1111 117.488 36.5186 116.598 41.2593L112.07 64.5186H101.086L105.391 42.3704C105.91 39.8519 105.688 38.1482 104.871 37.2593C104.055 36.3704 102.199 35.8519 99.4531 35.8519H90.7695L85.2031 64.5186H74.3672L84.0898 14.5186ZM140.645 35.7037C144.801 35.7037 147.547 36.4445 148.957 38C150.367 39.5556 150.664 42.1482 149.922 45.8519C149.18 49.7037 147.695 52.5186 145.543 54.1482C143.391 55.7778 140.125 56.5926 135.746 56.5926H129.141L133.223 35.7037H140.645ZM114.074 77.7778H124.984L127.582 64.5186H136.934C141.09 64.5186 144.43 64.0741 147.102 63.1852C149.773 62.2963 152.148 60.8889 154.375 58.8149C156.23 57.1112 157.715 55.2593 158.828 53.2593C159.941 51.2593 160.758 49.0371 161.203 46.5926C162.391 40.6667 161.5 36.0741 158.605 32.7408C155.711 29.4074 151.109 27.7778 144.801 27.7778H123.797L114.074 77.7778Z" fill="#000004"/>
<defs>
<radialGradient id="paint0_radial_10_414" cx="0" cy="0" r="1" gradientUnits="userSpaceOnUse" gradientTransform="translate(57.0382 17.5315) scale(124.758 124.515)">
<stop stop-color="white"/>
<stop offset="0.5" stop-color="#4C6B97"/>
<stop offset="1" stop-color="#231F20"/>
</radialGradient>
</defs>
</svg>
