<svg width="190" height="183" viewBox="0 0 190 183" fill="none" xmlns="http://www.w3.org/2000/svg">
<path d="M35.0431 154.991L21.7075 11.396H168.293L154.939 154.968L94.911 170.94L35.0431 154.991Z" fill="#1572B6"/>
<path d="M95 158.735L143.509 145.829L154.921 23.1395H95V158.735Z" fill="#33A9DC"/>
<path d="M95 75.1623H119.284L120.959 57.1281H95V39.5156H141.016L140.576 44.2393L136.07 92.7748H95V75.1623Z" fill="white"/>
<path d="M95.1128 120.9L95.0297 120.923L74.5928 115.624L73.2866 101.578H54.8625L57.4334 129.231L95.0237 139.248L95.1128 139.225V120.9Z" fill="#EBEBEB"/>
<path d="M117.723 92.0283L115.514 115.612L95.0475 120.911V139.236L132.667 129.231L132.947 126.256L136.135 92.0283H117.723Z" fill="white"/>
<path d="M95.0653 39.5156V57.1281H50.7359L50.3678 53.168L49.5306 44.2393L49.0912 39.5156H95.0653ZM95 75.1623V92.7748H74.8184L74.4503 88.8147L73.6191 79.8859L73.1797 75.1623H95Z" fill="#EBEBEB"/>
</svg>
