<svg width="59" height="68" viewBox="0 0 59 68" fill="none" xmlns="http://www.w3.org/2000/svg">
<g filter="url(#filter0_d_23_29)">
<path d="M19.6166 0.170979C19.3246 0.17286 19.0377 0.247464 18.7818 0.388055C17.9415 0.854102 17.6333 1.9343 18.0989 2.7745L19.9961 6.20227C15.4252 9.03184 12.3965 13.8653 12.3965 19.3819V20.4069C11.5185 19.3963 10.2282 18.7582 8.78643 18.7582C6.14479 18.7582 4 20.9043 4 23.5473V38.2999C4 40.9427 6.14499 43.0889 8.78643 43.0889C10.2282 43.0889 11.5185 42.4506 12.3963 41.44V43.5065C12.3963 46.2926 14.6747 48.5722 17.4592 48.5722H18.7438V55.135C18.7438 57.7782 20.8888 59.9242 23.5302 59.9242C26.1717 59.9242 28.3164 57.778 28.3164 55.135V48.5722H30.5389V55.135C30.5389 57.7782 32.6839 59.9242 35.3254 59.9242C37.9668 59.9242 40.1116 57.778 40.1116 55.135V48.5722H41.3963C44.1806 48.5722 46.4591 46.2926 46.4591 43.5065V41.44C47.3369 42.4506 48.6274 43.0889 50.0691 43.0889C52.7106 43.0889 54.8554 40.9427 54.8554 38.2999V23.5473C54.8554 20.9043 52.7106 18.7582 50.0691 18.7582C48.6274 18.7582 47.3369 19.3963 46.4591 20.4069V19.5065C46.4595 19.4547 46.4591 19.4132 46.4591 19.3819C46.4591 13.8663 43.4234 9.03762 38.8541 6.20786L40.7567 2.7745C41.222 1.9343 40.914 0.854102 40.0737 0.388055C39.8178 0.247464 39.5309 0.17286 39.239 0.170979C38.6184 0.164999 38.0094 0.492308 37.6887 1.07138L35.6993 4.66739C33.7541 3.94919 31.6376 3.5555 29.4279 3.5555C27.2201 3.5555 25.0997 3.945 23.1561 4.66181L21.1669 1.07138C20.8459 0.492308 20.2371 0.165398 19.6166 0.170979Z" fill="white"/>
<path d="M8.78644 20.0057C6.81537 20.0057 5.24692 21.5751 5.24692 23.5473V38.3C5.24692 40.2722 6.81537 41.8416 8.78644 41.8416C10.7575 41.8416 12.3262 40.2722 12.3262 38.3V23.5473C12.3262 21.5751 10.7575 20.0057 8.78644 20.0057ZM50.0693 20.0057C48.0981 20.0057 46.5296 21.5751 46.5296 23.5473V38.3C46.5296 40.2722 48.0981 41.8416 50.0693 41.8416C52.0404 41.8416 53.6089 40.2722 53.6089 38.3V23.5473C53.6089 21.5751 52.0404 20.0057 50.0693 20.0057ZM23.5302 36.8408C21.5591 36.8408 19.9905 38.4102 19.9905 40.3826V55.135C19.9905 57.1073 21.5591 58.6766 23.5302 58.6766C25.5013 58.6766 27.0697 57.1073 27.0697 55.135V40.3826C27.0697 38.4102 25.5013 36.8408 23.5302 36.8408ZM35.3254 36.8408C33.3541 36.8408 31.7856 38.4102 31.7856 40.3826V55.135C31.7856 57.1073 33.3541 58.6766 35.3254 58.6766C37.2964 58.6766 38.8649 57.1073 38.8649 55.135V40.3826C38.8649 38.4102 37.2964 36.8408 35.3254 36.8408Z" fill="#A4C639"/>
<path d="M19.6273 1.41865C19.5436 1.41966 19.4615 1.44202 19.3889 1.48363C19.1364 1.62357 19.0536 1.9138 19.1936 2.16695L21.6872 6.67413C16.89 9.17181 13.6496 13.9182 13.6432 19.3656H45.2124C45.2058 13.9182 41.9655 9.17161 37.1683 6.67413L39.6618 2.16715C39.802 1.914 39.7189 1.62357 39.4665 1.48363C39.3939 1.442 39.3118 1.41963 39.2281 1.41865C39.0488 1.41666 38.8792 1.50636 38.7836 1.67898L36.2575 6.2348C34.1912 5.31785 31.8735 4.80297 29.4277 4.80297C26.9819 4.80297 24.6644 5.31765 22.5979 6.2348L20.0718 1.67898C20.0287 1.59901 19.9645 1.53243 19.8861 1.48652C19.8078 1.4406 19.7183 1.41712 19.6275 1.41865H19.6273ZM13.6432 20.6131V43.5068C13.6421 44.0085 13.7401 44.5055 13.9315 44.9692C14.1229 45.4329 14.4039 45.8543 14.7585 46.209C15.1131 46.5638 15.5342 46.845 15.9976 47.0364C16.4611 47.2279 16.9578 47.3259 17.4592 47.3248H41.3964C41.8978 47.3259 42.3945 47.2279 42.858 47.0364C43.3215 46.8449 43.7426 46.5637 44.0972 46.2089C44.4517 45.8542 44.7328 45.4328 44.9242 44.9691C45.1155 44.5053 45.2135 44.0083 45.2124 43.5066V20.6133H13.6432V20.6131Z" fill="#A4C639"/>
<path d="M22.1425 10.9481C21.4219 10.9481 20.8252 11.5449 20.8252 12.2659C20.8252 12.9871 21.4219 13.5839 22.1425 13.5839C22.8632 13.5839 23.4597 12.9871 23.4597 12.2659C23.4597 11.5449 22.8632 10.9481 22.1425 10.9481ZM36.7129 10.9481C35.9921 10.9481 35.3957 11.5449 35.3957 12.2659C35.3957 12.9871 35.9921 13.5839 36.7129 13.5839C37.4335 13.5839 38.0302 12.9871 38.0302 12.2659C38.0302 11.5449 37.4335 10.9481 36.7129 10.9481Z" fill="white"/>
</g>
<defs>
<filter id="filter0_d_23_29" x="0" y="0" width="59" height="68" filterUnits="userSpaceOnUse" color-interpolation-filters="sRGB">
<feFlood flood-opacity="0" result="BackgroundImageFix"/>
<feColorMatrix in="SourceAlpha" type="matrix" values="0 0 0 0 0 0 0 0 0 0 0 0 0 0 0 0 0 0 127 0" result="hardAlpha"/>
<feOffset dy="4"/>
<feGaussianBlur stdDeviation="2"/>
<feComposite in2="hardAlpha" operator="out"/>
<feColorMatrix type="matrix" values="0 0 0 0 0 0 0 0 0 0 0 0 0 0 0 0 0 0 0.25 0"/>
<feBlend mode="normal" in2="BackgroundImageFix" result="effect1_dropShadow_23_29"/>
<feBlend mode="normal" in="SourceGraphic" in2="effect1_dropShadow_23_29" result="shape"/>
</filter>
</defs>
</svg>
