<svg width="152" height="152" viewBox="0 0 152 152" fill="none" xmlns="http://www.w3.org/2000/svg">
<path d="M28.0345 129.205L17.3612 9.5H134.639L123.951 129.186L75.9287 142.5L28.0345 129.205Z" fill="#E44F26"/>
<path d="M76 132.326L114.807 121.567L123.937 19.2898H76V132.326Z" fill="#F1662A"/>
<path d="M76 63.6833H56.5725L55.233 48.6495H76V33.9673H39.1875L39.539 37.9098L43.1443 78.3655H76V63.6833ZM76 101.812L75.9335 101.831L59.584 97.4178L58.539 85.709H43.7997L45.8565 108.756L75.9335 117.107L76 117.088V101.812Z" fill="#EBEBEB"/>
<path d="M75.9478 63.6833V78.3655H94.0263L92.3258 97.4083L75.9478 101.826V117.102L106.049 108.756L106.267 106.277L109.715 67.6258L110.076 63.6833H75.9478ZM75.9478 33.9673V48.6495H111.411L111.706 45.353L112.376 37.9098L112.727 33.9673H75.9478Z" fill="white"/>
</svg>
