<svg width="139" height="156" viewBox="0 0 139 156" fill="none" xmlns="http://www.w3.org/2000/svg">
<path d="M138.766 45.7449C138.765 43.1287 138.204 40.8168 137.07 38.8332C135.956 36.8816 134.287 35.2463 132.049 33.9534C113.574 23.3264 95.082 12.7319 76.6134 2.09415C71.6344 -0.773436 66.8069 -0.668353 61.8648 2.2404C54.5113 6.56615 17.6954 27.6083 6.72467 33.9474C2.20662 36.5571 0.00814453 40.5503 0.00705859 45.74C0 67.1115 0.00705859 88.4829 0 109.854C0 112.413 0.538082 114.681 1.62239 116.634C2.73711 118.645 4.429 120.325 6.7187 121.647C17.6899 127.986 54.5108 149.027 61.8626 153.354C66.8069 156.264 71.6344 156.368 76.6151 153.5C95.0841 142.862 113.578 132.267 132.055 121.641C134.345 120.319 136.036 118.638 137.151 116.629C138.234 114.675 138.773 112.408 138.773 109.848C138.773 109.848 138.773 67.1169 138.766 45.7449Z" fill="#A179DC"/>
<path d="M69.5989 77.5889L1.62244 116.634C2.73715 118.644 4.42904 120.325 6.71874 121.647C17.69 127.986 54.5109 149.027 61.8627 153.354C66.8069 156.264 71.6345 156.368 76.6151 153.5C95.0842 142.862 113.578 132.267 132.055 121.64C134.345 120.319 136.037 118.637 137.151 116.629L69.5989 77.5889Z" fill="#280068"/>
<path d="M138.766 45.7448C138.765 43.1285 138.204 40.8167 137.07 38.8331L69.5989 77.5894L137.151 116.629C138.234 114.675 138.772 112.408 138.773 109.848C138.773 109.848 138.773 67.1168 138.766 45.7448Z" fill="#390091"/>
<path d="M109.621 62.9926V70.291H116.937V62.9926H120.595V70.291H127.911V73.9402H120.595V81.2381H127.911V84.8873H120.595V92.1857H116.937V84.8873H109.621V92.1857H105.963V84.8873H98.6477V81.2381H105.963V73.9402H98.6477V70.291H105.963V62.9926H109.621ZM116.937 73.9396H109.621V81.2381H116.937V73.9402V73.9396Z" fill="white"/>
<path d="M69.7481 26.339C88.8302 26.339 105.49 36.6773 114.414 52.0444L114.327 51.8965L91.8752 64.7925C87.4521 57.3213 79.3434 52.2789 70.0408 52.1749L69.7476 52.1733C55.5625 52.1733 44.0624 63.6458 44.0624 77.7968C44.0578 82.2571 45.2258 86.6406 47.45 90.5098C51.8774 98.2204 60.2005 103.421 69.7481 103.421C79.3548 103.421 87.7252 98.1543 92.1298 90.3613L92.0229 90.5482L114.44 103.504C105.614 118.741 89.1826 129.047 70.3226 129.252L69.7481 129.256C50.6057 129.256 33.8986 118.854 24.9972 103.405C20.6518 95.8636 18.1655 87.1205 18.1655 77.7968C18.1655 49.3778 41.2591 26.3385 69.7476 26.3385L69.7481 26.339Z" fill="white"/>
</svg>
